# Blender 3.4.1
# www.blender.org
mtllib sheep.mtl
o Icosphere
v -0.648205 0.431466 -0.170247
v 1.625027 0.995687 0.138291
v -0.924593 0.984246 0.680402
v -1.542631 0.984250 -0.170247
v -0.924593 0.984246 -1.020896
v 0.075403 0.984246 -0.695972
v -0.371817 1.878686 0.680402
v -1.371812 1.878685 0.355478
v -1.371812 1.878685 -0.695972
v -0.371817 1.878686 -1.020896
v 1.795846 1.890122 -0.387434
v -0.648205 2.431466 -0.170247
v -0.810660 0.580811 0.329748
v 1.326743 0.592252 -0.078423
v -0.385336 0.905728 0.638765
v 1.752068 0.917170 -0.387434
v -0.222882 0.580812 -0.479258
v -1.173934 0.580814 -0.170247
v -1.336394 0.905730 0.329750
v -0.810660 0.580811 -0.670242
v -1.336394 0.905730 -0.670244
v -0.385336 0.905728 -0.979259
v 1.852478 1.442906 -0.078422
v 1.852478 1.442906 -0.696447
v -0.648205 1.431466 0.829753
v 1.489206 1.442906 0.421582
v -1.599262 1.431466 0.138766
v -1.235990 1.431466 0.638770
v -1.235990 1.431466 -0.979264
v -1.599262 1.431466 -0.479259
v -0.060419 1.431466 -0.979264
v -0.648205 1.431466 -1.170247
v 1.589610 1.968642 0.112563
v -0.911073 1.957203 0.638765
v -1.498852 1.957202 -0.170247
v -0.911073 1.957203 -0.979259
v 1.589610 1.968642 -0.887431
v -0.485749 2.282120 0.329748
v 1.427150 2.293558 -0.387434
v -1.073527 2.282120 0.138765
v -1.073527 2.282120 -0.479258
v -0.485749 2.282120 -0.670242
v 1.464861 0.965116 -0.519504
v 1.515614 0.765979 -0.792157
v 1.399931 1.229929 -0.725002
v 1.450683 1.030792 -0.997655
v 1.133531 0.882717 -0.520998
v 1.184284 0.683580 -0.793651
v 1.068601 1.147530 -0.726496
v 1.210201 0.998852 -1.024364
v -0.336037 0.705855 -0.694463
v -0.285285 0.506718 -0.967116
v -0.400967 0.970669 -0.899960
v -0.350215 0.771532 -1.172613
v -0.667367 0.623457 -0.695956
v -0.616614 0.424320 -0.968609
v -0.732297 0.888270 -0.901454
v -0.590697 0.739592 -1.199322
v -0.431861 0.548760 0.805671
v -0.336941 0.778041 0.571169
v -0.509119 0.801648 1.021658
v -0.414199 1.030929 0.787156
v -0.750596 0.555743 0.683484
v -0.655676 0.785024 0.448982
v -0.827855 0.808631 0.899470
v -0.646577 1.066122 0.721375
v 1.172309 1.015479 0.202393
v 1.240815 0.887986 0.511624
v 1.450065 0.861296 0.077292
v 1.518571 0.733803 0.386522
v 0.985950 0.738813 0.129611
v 1.054456 0.611319 0.438841
v 1.263706 0.584630 0.004509
v 1.417894 0.520057 0.325348
v -1.566552 1.493860 -0.199127
v -1.112741 1.840536 0.130581
v -1.739889 1.840536 0.334357
v -2.127491 1.840539 -0.199127
v -1.739889 1.840536 -0.732612
v -1.112741 1.840536 -0.528836
v -1.393215 2.401484 0.334357
v -2.020362 2.401484 0.130581
v -2.020362 2.401484 -0.528836
v -1.393215 2.401484 -0.732612
v -1.005613 2.401481 -0.199127
v -1.566552 2.748160 -0.199127
v -1.668436 1.587522 0.114445
v -1.299811 1.587522 -0.005331
v -1.401694 1.791293 0.308244
v -1.033068 1.791294 -0.199127
v -1.299811 1.587522 -0.392924
v -1.896263 1.587524 -0.199127
v -1.998150 1.791294 0.114446
v -1.668436 1.587522 -0.512699
v -1.998150 1.791294 -0.512700
v -1.401694 1.791293 -0.706499
v -0.970096 2.121010 -0.005330
v -0.970096 2.121010 -0.392925
v -1.566552 2.121010 0.428023
v -1.197922 2.121010 0.308247
v -2.163008 2.121010 -0.005330
v -1.935182 2.121010 0.308247
v -1.935182 2.121010 -0.706502
v -2.163008 2.121010 -0.392925
v -1.197922 2.121010 -0.706502
v -1.566552 2.121010 -0.826277
v -1.134954 2.450725 0.114446
v -1.731410 2.450726 0.308244
v -2.100036 2.450725 -0.199127
v -1.731410 2.450726 -0.706499
v -1.134954 2.450725 -0.512700
v -1.464668 2.654498 0.114445
v -1.236840 2.654496 -0.199127
v -1.833293 2.654498 -0.005331
v -1.833293 2.654498 -0.392924
v -1.464668 2.654498 -0.512699
vn 0.0632 -0.9504 0.3044
vn 0.7002 -0.6617 0.2680
vn -0.2680 -0.9435 0.1947
vn -0.2680 -0.9435 -0.1947
vn 0.1024 -0.9435 -0.3151
vn 0.9050 -0.3304 0.2680
vn 0.0247 -0.3304 0.9435
vn -0.8897 -0.3304 0.3151
vn -0.5746 -0.3304 -0.7488
vn 0.5346 -0.3304 -0.7779
vn 0.8026 -0.1256 0.5831
vn -0.3066 -0.1256 0.9435
vn -0.9921 -0.1256 -0.0000
vn -0.3066 -0.1256 -0.9435
vn 0.1294 -0.5023 -0.8550
vn 0.1768 0.6736 0.7176
vn -0.4713 0.6617 0.5831
vn -0.7002 0.6617 -0.2680
vn 0.0385 0.6617 -0.7488
vn 0.7240 0.6617 -0.1947
vn 0.0350 0.9606 -0.2756
vn 0.0728 0.8469 -0.5267
vn 0.0209 0.6592 -0.7517
vn -0.1024 0.9435 -0.3151
vn -0.1876 0.7947 -0.5773
vn -0.4713 0.6617 -0.5831
vn -0.3313 0.9435 -0.0000
vn -0.6071 0.7947 -0.0000
vn -0.7002 0.6617 0.2680
vn -0.1024 0.9435 0.3151
vn -0.1876 0.7947 0.5773
vn 0.0385 0.6617 0.7488
vn 0.0909 0.9619 0.2578
vn 0.1802 0.8505 0.4941
vn 0.7240 0.6617 0.1947
vn 0.8897 0.3304 -0.3151
vn 0.1423 -0.2744 -0.9510
vn 0.0698 -0.0441 -0.9966
vn -0.0247 0.3304 -0.9435
vn -0.3035 0.1876 -0.9342
vn -0.5346 0.3304 -0.7779
vn -0.9050 0.3304 -0.2680
vn -0.9822 0.1876 -0.0000
vn -0.9050 0.3304 0.2680
vn -0.5346 0.3304 0.7779
vn -0.3035 0.1876 0.9342
vn -0.0247 0.3304 0.9435
vn 0.2272 0.4609 0.8579
vn 0.7947 0.1876 0.5773
vn 0.8897 0.3304 0.3151
vn 0.3066 0.1256 -0.9435
vn 0.3035 -0.1876 -0.9342
vn 0.0247 -0.3304 -0.9435
vn -0.8026 0.1256 -0.5831
vn -0.7947 -0.1876 -0.5773
vn -0.8897 -0.3304 -0.3151
vn -0.8026 0.1256 0.5831
vn -0.7947 -0.1876 0.5773
vn -0.5746 -0.3304 0.7488
vn 0.1824 0.2082 0.9609
vn 0.1827 -0.2537 0.9499
vn 0.2331 -0.4689 0.8520
vn 0.9921 0.1256 -0.0000
vn 0.9822 -0.1876 -0.0000
vn 0.1343 -0.5211 -0.8429
vn 0.4713 -0.6617 -0.5831
vn 0.1876 -0.7947 -0.5773
vn -0.0385 -0.6617 -0.7488
vn -0.4089 -0.6617 -0.6284
vn -0.4911 -0.7947 -0.3568
vn -0.7240 -0.6617 -0.1947
vn -0.7240 -0.6617 0.1947
vn -0.4911 -0.7947 0.3568
vn -0.4089 -0.6617 0.6284
vn 0.1310 -0.5426 -0.8297
vn 0.1613 -0.7827 -0.6011
vn 0.0918 -0.9402 -0.3280
vn -0.0385 -0.6617 0.7488
vn 0.1248 -0.7647 0.6322
vn 0.2207 -0.5832 0.7818
vn 0.9704 0.2413 0.0044
vn -0.1378 0.8244 -0.5490
vn -0.9580 -0.2107 -0.1945
vn 0.1902 -0.7756 0.6019
vn -0.1486 0.5833 0.7986
vn 0.1565 -0.5869 -0.7944
vn 0.9335 -0.0205 0.3579
vn -0.1842 0.6943 0.6958
vn -0.9091 0.2119 -0.3586
vn 0.2263 -0.7407 -0.6326
vn -0.2780 -0.6715 0.6868
vn 0.2859 0.6663 -0.6887
vn 0.5458 0.8103 0.2132
vn 0.8320 -0.3754 -0.4085
vn -0.3979 -0.9073 -0.1359
vn -0.8135 0.4516 0.3664
vn -0.2006 0.3734 -0.9057
vn 0.1988 -0.3648 0.9096
vn 0.1024 -0.9435 0.3151
vn 0.8026 -0.1256 -0.5831
vn 0.4089 0.6617 0.6284
vn 0.2680 0.9435 -0.1947
vn 0.4911 0.7947 -0.3568
vn 0.4089 0.6617 -0.6284
vn 0.2680 0.9435 0.1947
vn 0.4911 0.7947 0.3568
vn 0.7947 0.1876 -0.5773
vn 0.5746 0.3304 -0.7488
vn 0.5746 0.3304 0.7488
vn 0.3066 0.1256 0.9435
vn 0.3035 -0.1876 0.9342
vn 0.5346 -0.3304 0.7779
vn 0.9050 -0.3304 -0.2680
vn 0.7002 -0.6617 -0.2680
vn 0.6071 -0.7947 -0.0000
vn 0.3313 -0.9435 -0.0000
vn 0.1876 -0.7947 0.5773
vn 0.4713 -0.6617 0.5831
vt 0.181819 0.000000
vt 0.909091 0.000000
vt 0.727273 0.000000
vt 0.545455 0.000000
vt 0.363637 0.000000
vt 0.272728 0.157461
vt 1.000000 0.157461
vt 0.090910 0.157461
vt 0.818182 0.157461
vt 0.636364 0.157461
vt 0.454546 0.157461
vt 0.181819 0.314921
vt 0.000000 0.314921
vt 0.909091 0.314921
vt 0.727273 0.314921
vt 0.545455 0.314921
vt 0.363637 0.314921
vt 0.454546 0.472382
vt 0.636364 0.472382
vt 0.818182 0.472382
vt 0.090910 0.472382
vt 0.272728 0.472382
vt 0.954545 0.078731
vt 0.136365 0.078731
vt 0.318182 0.078731
vt 0.227273 0.078731
vt 0.181819 0.157461
vt 0.363637 0.157461
vt 0.500000 0.078731
vt 0.409092 0.078731
vt 0.772727 0.078731
vt 0.863636 0.078731
vt 0.909091 0.157461
vt 0.590909 0.078731
vt 0.681818 0.078731
vt 0.727273 0.157461
vt 0.545455 0.157461
vt 0.318182 0.236191
vt 0.409092 0.236191
vt 0.136365 0.236191
vt 0.227273 0.236191
vt 0.863636 0.236191
vt 0.045455 0.236191
vt 0.954545 0.236191
vt 0.681818 0.236191
vt 0.772727 0.236191
vt 0.500000 0.236191
vt 0.590909 0.236191
vt 0.272728 0.314921
vt 0.090910 0.314921
vt 0.818182 0.314921
vt 0.636364 0.314921
vt 0.454546 0.314921
vt 0.136365 0.393651
vt 0.227273 0.393651
vt 0.409092 0.393651
vt 0.318182 0.393651
vt 0.863636 0.393651
vt 0.045455 0.393651
vt 0.681818 0.393651
vt 0.772727 0.393651
vt 0.500000 0.393651
vt 0.590909 0.393651
vt 0.375000 0.000000
vt 0.375000 1.000000
vt 0.125000 0.750000
vt 0.625000 0.000000
vt 0.625000 1.000000
vt 0.875000 0.750000
vt 0.375000 0.250000
vt 0.125000 0.500000
vt 0.625000 0.250000
vt 0.875000 0.500000
vt 0.375000 0.750000
vt 0.625000 0.750000
vt 0.375000 0.500000
vt 0.625000 0.500000
vt 0.375000 0.000000
vt 0.375000 1.000000
vt 0.125000 0.750000
vt 0.625000 0.000000
vt 0.625000 1.000000
vt 0.875000 0.750000
vt 0.375000 0.250000
vt 0.125000 0.500000
vt 0.625000 0.250000
vt 0.875000 0.500000
vt 0.375000 0.750000
vt 0.625000 0.750000
vt 0.375000 0.500000
vt 0.625000 0.500000
vt 0.375000 0.000000
vt 0.375000 1.000000
vt 0.125000 0.750000
vt 0.625000 0.000000
vt 0.625000 1.000000
vt 0.875000 0.750000
vt 0.375000 0.250000
vt 0.125000 0.500000
vt 0.625000 0.250000
vt 0.875000 0.500000
vt 0.375000 0.750000
vt 0.625000 0.750000
vt 0.375000 0.500000
vt 0.625000 0.500000
vt 0.375000 0.000000
vt 0.375000 1.000000
vt 0.125000 0.750000
vt 0.625000 0.000000
vt 0.625000 1.000000
vt 0.875000 0.750000
vt 0.375000 0.250000
vt 0.125000 0.500000
vt 0.625000 0.250000
vt 0.875000 0.500000
vt 0.375000 0.750000
vt 0.625000 0.750000
vt 0.375000 0.500000
vt 0.625000 0.500000
vt 0.181819 0.000000
vt 0.909091 0.000000
vt 0.727273 0.000000
vt 0.545455 0.000000
vt 0.363637 0.000000
vt 0.272728 0.157461
vt 1.000000 0.157461
vt 0.090910 0.157461
vt 0.818182 0.157461
vt 0.636364 0.157461
vt 0.454546 0.157461
vt 0.181819 0.314921
vt 0.000000 0.314921
vt 0.909091 0.314921
vt 0.727273 0.314921
vt 0.545455 0.314921
vt 0.363637 0.314921
vt 0.454546 0.472382
vt 0.636364 0.472382
vt 0.818182 0.472382
vt 0.090910 0.472382
vt 0.272728 0.472382
vt 0.954545 0.078731
vt 0.136365 0.078731
vt 0.318182 0.078731
vt 0.227273 0.078731
vt 0.181819 0.157461
vt 0.363637 0.157461
vt 0.500000 0.078731
vt 0.409092 0.078731
vt 0.772727 0.078731
vt 0.863636 0.078731
vt 0.909091 0.157461
vt 0.590909 0.078731
vt 0.681818 0.078731
vt 0.727273 0.157461
vt 0.545455 0.157461
vt 0.318182 0.236191
vt 0.409092 0.236191
vt 0.136365 0.236191
vt 0.227273 0.236191
vt 0.863636 0.236191
vt 0.045455 0.236191
vt 0.954545 0.236191
vt 0.681818 0.236191
vt 0.772727 0.236191
vt 0.500000 0.236191
vt 0.590909 0.236191
vt 0.272728 0.314921
vt 0.090910 0.314921
vt 0.818182 0.314921
vt 0.636364 0.314921
vt 0.454546 0.314921
vt 0.136365 0.393651
vt 0.227273 0.393651
vt 0.409092 0.393651
vt 0.318182 0.393651
vt 0.863636 0.393651
vt 0.045455 0.393651
vt 0.681818 0.393651
vt 0.772727 0.393651
vt 0.500000 0.393651
vt 0.590909 0.393651
s 0
usemtl Black
f 1/1/1 14/26/1 13/24/1
f 1/2/3 13/23/3 18/32/3
f 1/3/4 18/31/4 20/35/4
f 1/4/5 20/34/5 17/29/5
f 9/15/18 35/51/18 41/61/18
f 41/61/28 35/51/28 40/58/28
f 35/51/29 8/14/29 40/58/29
f 27/42/44 8/14/44 35/51/44
f 20/35/70 18/31/70 21/36/70
f 18/32/73 13/23/73 19/33/73
f 13/24/79 14/26/79 15/27/79
f 43/64/81 44/67/81 46/72/81 45/70/81
f 45/70/82 46/72/82 50/77/82 49/76/82
f 49/76/83 50/77/83 48/75/83 47/74/83
f 47/74/84 48/75/84 44/68/84 43/65/84
f 45/71/85 49/76/85 47/74/85 43/66/85
f 50/77/86 46/73/86 44/69/86 48/75/86
f 51/78/81 52/81/81 54/86/81 53/84/81
f 53/84/82 54/86/82 58/91/82 57/90/82
f 57/90/83 58/91/83 56/89/83 55/88/83
f 55/88/84 56/89/84 52/82/84 51/79/84
f 53/85/85 57/90/85 55/88/85 51/80/85
f 58/91/86 54/87/86 52/83/86 56/89/86
f 59/92/87 60/95/87 62/100/87 61/98/87
f 61/98/88 62/100/88 66/105/88 65/104/88
f 65/104/89 66/105/89 64/103/89 63/102/89
f 61/99/91 65/104/91 63/102/91 59/94/91
f 66/105/92 62/101/92 60/97/92 64/103/92
f 67/106/93 68/109/93 70/114/93 69/112/93
f 69/112/94 70/114/94 74/119/94 73/118/94
f 73/118/95 74/119/95 72/117/95 71/116/95
f 71/116/96 72/117/96 68/110/96 67/107/96
f 69/113/97 73/118/97 71/116/97 67/108/97
f 74/119/98 70/115/98 68/111/98 72/117/98
f 75/120/99 88/145/99 87/143/99
f 76/125/2 88/144/2 90/147/2
f 75/121/3 87/142/3 92/151/3
f 75/122/4 92/150/4 94/154/4
f 75/123/5 94/153/5 91/148/5
f 76/125/6 90/147/6 97/157/6
f 77/127/7 89/146/7 99/159/7
f 78/128/8 93/152/8 101/161/8
f 79/129/9 95/155/9 103/164/9
f 80/130/10 96/156/10 105/166/10
f 76/125/11 97/157/11 100/160/11
f 77/127/12 99/159/12 102/162/12
f 78/128/13 101/161/13 104/165/13
f 79/129/14 103/164/14 106/167/14
f 80/130/100 105/166/100 98/158/100
f 81/131/101 107/168/101 112/174/101
f 82/132/17 108/169/17 114/178/17
f 83/134/18 109/170/18 115/180/18
f 84/135/19 110/171/19 116/182/19
f 85/136/20 111/172/20 113/175/20
f 113/175/102 116/181/102 86/137/102
f 113/175/103 111/172/103 116/181/103
f 111/172/104 84/135/104 116/181/104
f 116/182/24 115/179/24 86/138/24
f 116/182/25 110/171/25 115/179/25
f 110/171/26 83/134/26 115/179/26
f 115/180/27 114/177/27 86/139/27
f 115/180/28 109/170/28 114/177/28
f 109/170/29 82/133/29 114/177/29
f 114/178/30 112/173/30 86/140/30
f 114/178/31 108/169/31 112/173/31
f 108/169/32 81/131/32 112/173/32
f 112/174/105 113/176/105 86/141/105
f 112/174/106 107/168/106 113/176/106
f 107/168/35 85/136/35 113/176/35
f 98/158/36 111/172/36 85/136/36
f 98/158/107 105/166/107 111/172/107
f 105/166/108 84/135/108 111/172/108
f 106/167/39 110/171/39 84/135/39
f 106/167/40 103/164/40 110/171/40
f 103/164/41 83/134/41 110/171/41
f 104/165/42 109/170/42 83/134/42
f 104/165/43 101/161/43 109/170/43
f 101/161/44 82/133/44 109/170/44
f 102/162/45 108/169/45 82/132/45
f 102/162/46 99/159/46 108/169/46
f 99/159/47 81/131/47 108/169/47
f 100/160/109 107/168/109 81/131/109
f 100/160/49 97/157/49 107/168/49
f 97/157/50 85/136/50 107/168/50
f 105/166/51 106/167/51 84/135/51
f 105/166/52 96/156/52 106/167/52
f 96/156/53 79/129/53 106/167/53
f 103/164/54 104/165/54 83/134/54
f 103/164/55 95/155/55 104/165/55
f 95/155/56 78/128/56 104/165/56
f 101/161/57 102/163/57 82/133/57
f 101/161/58 93/152/58 102/163/58
f 93/152/59 77/126/59 102/163/59
f 99/159/110 100/160/110 81/131/110
f 99/159/111 89/146/111 100/160/111
f 89/146/112 76/125/112 100/160/112
f 97/157/63 98/158/63 85/136/63
f 97/157/64 90/147/64 98/158/64
f 90/147/113 80/130/113 98/158/113
f 91/148/66 96/156/66 80/130/66
f 91/148/67 94/153/67 96/156/67
f 94/153/68 79/129/68 96/156/68
f 94/154/69 95/155/69 79/129/69
f 94/154/70 92/150/70 95/155/70
f 92/150/71 78/128/71 95/155/71
f 92/151/72 93/152/72 78/128/72
f 92/151/73 87/142/73 93/152/73
f 87/142/74 77/126/74 93/152/74
f 90/147/114 91/149/114 80/130/114
f 90/147/115 88/144/115 91/149/115
f 88/144/116 75/124/116 91/149/116
f 87/143/78 89/146/78 77/127/78
f 87/143/117 88/145/117 89/146/117
f 88/145/118 76/125/118 89/146/118
usemtl White
f 2/6/2 14/25/2 16/28/2
f 2/6/6 16/28/6 23/38/6
f 3/8/7 15/27/7 25/40/7
f 4/9/8 19/33/8 27/42/8
f 5/10/9 21/36/9 29/45/9
f 6/11/10 22/37/10 31/47/10
f 2/6/11 23/38/11 26/41/11
f 3/8/12 25/40/12 28/43/12
f 4/9/13 27/42/13 30/46/13
f 5/10/14 29/45/14 32/48/14
f 6/11/15 31/47/15 24/39/15
f 7/12/16 33/49/16 38/55/16
f 8/13/17 34/50/17 40/59/17
f 10/16/19 36/52/19 42/63/19
f 11/17/20 37/53/20 39/56/20
f 39/56/21 42/62/21 12/18/21
f 39/56/22 37/53/22 42/62/22
f 37/53/23 10/16/23 42/62/23
f 42/63/24 41/60/24 12/19/24
f 42/63/25 36/52/25 41/60/25
f 36/52/26 9/15/26 41/60/26
f 41/61/27 40/58/27 12/20/27
f 40/59/30 38/54/30 12/21/30
f 40/59/31 34/50/31 38/54/31
f 34/50/32 7/12/32 38/54/32
f 38/55/33 39/57/33 12/22/33
f 38/55/34 33/49/34 39/57/34
f 33/49/35 11/17/35 39/57/35
f 24/39/36 37/53/36 11/17/36
f 24/39/37 31/47/37 37/53/37
f 31/47/38 10/16/38 37/53/38
f 32/48/39 36/52/39 10/16/39
f 32/48/40 29/45/40 36/52/40
f 29/45/41 9/15/41 36/52/41
f 30/46/42 35/51/42 9/15/42
f 30/46/43 27/42/43 35/51/43
f 28/43/45 34/50/45 8/13/45
f 28/43/46 25/40/46 34/50/46
f 25/40/47 7/12/47 34/50/47
f 26/41/48 33/49/48 7/12/48
f 26/41/49 23/38/49 33/49/49
f 23/38/50 11/17/50 33/49/50
f 31/47/51 32/48/51 10/16/51
f 31/47/52 22/37/52 32/48/52
f 22/37/53 5/10/53 32/48/53
f 29/45/54 30/46/54 9/15/54
f 29/45/55 21/36/55 30/46/55
f 21/36/56 4/9/56 30/46/56
f 27/42/57 28/44/57 8/14/57
f 27/42/58 19/33/58 28/44/58
f 19/33/59 3/7/59 28/44/59
f 25/40/60 26/41/60 7/12/60
f 25/40/61 15/27/61 26/41/61
f 15/27/62 2/6/62 26/41/62
f 23/38/63 24/39/63 11/17/63
f 23/38/64 16/28/64 24/39/64
f 16/28/65 6/11/65 24/39/65
f 17/29/66 22/37/66 6/11/66
f 17/29/67 20/34/67 22/37/67
f 20/34/68 5/10/68 22/37/68
f 20/35/69 21/36/69 5/10/69
f 18/31/71 4/9/71 21/36/71
f 18/32/72 19/33/72 4/9/72
f 13/23/74 3/7/74 19/33/74
f 16/28/75 17/30/75 6/11/75
f 16/28/76 14/25/76 17/30/76
f 14/25/77 1/5/77 17/30/77
f 13/24/78 15/27/78 3/8/78
f 14/26/80 2/6/80 15/27/80
f 63/102/90 64/103/90 60/96/90 59/93/90
