# Blender v3.4.1 OBJ File: 'tree.blend'
# www.blender.org
mtllib tree.mtl
o Icosphere_Icosphere.002
v -1.050560 1.723421 1.484819
v -0.632694 1.889366 1.788394
v -1.210168 1.917225 1.806547
v -1.567075 1.916021 1.484843
v -1.210168 1.914122 1.011607
v -0.632694 1.896486 1.199242
v -0.890953 2.412834 1.975591
v -1.468426 2.430868 1.791417
v -1.468426 2.366710 1.260487
v -0.887698 2.427300 1.011607
v -0.534046 2.411301 1.502836
v -1.046415 2.695759 1.502836
vt 0.818181 0.000000
vt 0.727272 0.157461
vt 0.909090 0.157461
vt 0.636363 0.000000
vt 0.545454 0.157461
vt 0.090909 0.000000
vt 0.000000 0.157461
vt 0.181818 0.157461
vt 0.272727 0.000000
vt 0.363636 0.157461
vt 0.454545 0.000000
vt 0.636363 0.314921
vt 0.818181 0.314921
vt 0.090909 0.314921
vt 0.272727 0.314921
vt 0.454545 0.314921
vt 1.000000 0.314921
vt 0.727272 0.472382
vt 0.909090 0.472382
vt 0.181818 0.472382
vt 0.363636 0.472382
vt 0.545454 0.472382
vn -0.0257 -0.8619 0.5065
vn 0.3761 -0.9265 -0.0112
vn -0.3254 -0.8726 0.3642
vn -0.3382 -0.9069 -0.2514
vn 0.1026 -0.9101 -0.4014
vn 0.9824 -0.1869 -0.0023
vn 0.0137 -0.3307 0.9436
vn -0.6381 -0.3000 0.7091
vn -0.7925 -0.1238 -0.5972
vn 0.2984 -0.1875 -0.9359
vn 0.7859 0.1758 0.5928
vn -0.3050 -0.1255 0.9440
vn -0.9791 0.2021 -0.0244
vn -0.4033 0.2534 -0.8793
vn 0.8007 0.1830 -0.5705
vn 0.4562 0.8217 0.3417
vn -0.1474 0.8266 0.5432
vn -0.5763 0.8113 -0.0980
vn -0.3099 0.7886 -0.5311
vn 0.4622 0.8325 -0.3056
g Icosphere_Icosphere.002_Material.003
usemtl Material.003
s off
f 1/1/1 2/2/1 3/3/1
f 2/2/2 1/4/2 6/5/2
f 1/6/3 3/7/3 4/8/3
f 1/9/4 4/8/4 5/10/4
f 1/11/5 5/10/5 6/5/5
f 2/2/6 6/5/6 11/12/6
f 3/3/7 2/2/7 7/13/7
f 4/8/8 3/7/8 8/14/8
f 5/10/9 4/8/9 9/15/9
f 6/5/10 5/10/10 10/16/10
f 2/2/11 11/12/11 7/13/11
f 3/3/12 7/13/12 8/17/12
f 4/8/13 8/14/13 9/15/13
f 5/10/14 9/15/14 10/16/14
f 6/5/15 10/16/15 11/12/15
f 7/13/16 11/12/16 12/18/16
f 8/17/17 7/13/17 12/19/17
f 9/15/18 8/14/18 12/20/18
f 10/16/19 9/15/19 12/21/19
f 11/12/20 10/16/20 12/22/20
o Cylinder_Cylinder.002
v 0.000000 -0.057701 -0.121912
v 0.000000 3.542326 -0.121912
v 0.071658 -0.057701 -0.098629
v 0.071658 3.542326 -0.098629
v 0.115946 -0.057701 -0.037673
v 0.115946 3.542326 -0.037673
v 0.115946 -0.057701 0.037673
v 0.115946 3.542326 0.037673
v 0.071658 -0.057701 0.098629
v 0.071658 3.542326 0.098629
v -0.000000 -0.057701 0.121912
v -0.000000 3.542326 0.121912
v -0.071658 -0.057701 0.098629
v -0.071658 3.542326 0.098629
v -0.115946 -0.057701 0.037673
v -0.115946 3.542326 0.037673
v -0.115946 -0.057701 -0.037673
v -0.115946 3.542326 -0.037673
v -0.071658 -0.057701 -0.098629
v -0.071658 3.542326 -0.098629
v -0.317318 1.359139 -0.052428
v -0.245660 1.359139 -0.029144
v -0.201372 1.359139 0.031812
v -0.201372 1.359139 0.107158
v -0.245660 1.359139 0.168114
v -0.317318 1.359139 0.191397
v -0.388976 1.359139 0.168114
v -0.433264 1.359139 0.107158
v -0.433264 1.359139 0.031812
v -0.388976 1.359139 -0.029144
v 0.216255 2.450733 -0.144654
v 0.287914 2.450733 -0.121371
v 0.332201 2.450733 -0.060415
v 0.332201 2.450733 0.014931
v 0.287914 2.450733 0.075888
v 0.216255 2.450733 0.099171
v 0.144597 2.450733 0.075888
v 0.100310 2.450733 0.014931
v 0.100310 2.450733 -0.060415
v 0.144597 2.450733 -0.121371
vt 1.000000 0.848391
vt 1.000000 1.000000
vt 0.900000 1.000000
vt 0.900000 0.848391
vt 0.800000 1.000000
vt 0.800000 0.848391
vt 0.700000 1.000000
vt 0.700000 0.848391
vt 0.600000 1.000000
vt 0.600000 0.848391
vt 0.500000 1.000000
vt 0.500000 0.848391
vt 0.400000 1.000000
vt 0.400000 0.848391
vt 0.300000 1.000000
vt 0.300000 0.848391
vt 0.200000 1.000000
vt 0.200000 0.848391
vt 0.391068 0.444164
vt 0.250000 0.490000
vt 0.108932 0.444164
vt 0.021746 0.324164
vt 0.021746 0.175836
vt 0.108932 0.055836
vt 0.250000 0.010000
vt 0.391068 0.055836
vt 0.478254 0.175836
vt 0.478254 0.324164
vt 0.100000 1.000000
vt 0.100000 0.848391
vt -0.000000 1.000000
vt -0.000000 0.848391
vt 0.750000 0.490000
vt 0.891068 0.444164
vt 0.978254 0.324164
vt 0.978254 0.175836
vt 0.891068 0.055836
vt 0.750000 0.010000
vt 0.608932 0.055836
vt 0.521746 0.175836
vt 0.521746 0.324164
vt 0.608932 0.444164
vt 0.100000 0.500000
vt 0.100000 0.696782
vt -0.000000 0.696782
vt -0.000000 0.500000
vt 0.200000 0.500000
vt 0.200000 0.696782
vt 0.300000 0.500000
vt 0.300000 0.696782
vt 0.400000 0.500000
vt 0.400000 0.696782
vt 0.500000 0.500000
vt 0.500000 0.696782
vt 0.600000 0.500000
vt 0.600000 0.696782
vt 0.700000 0.500000
vt 0.700000 0.696782
vt 0.800000 0.500000
vt 0.800000 0.696782
vt 0.900000 0.500000
vt 0.900000 0.696782
vt 1.000000 0.500000
vt 1.000000 0.696782
vn 0.3080 0.0808 -0.9479
vn 0.7972 0.1700 -0.5792
vn 0.9809 0.1943 0.0000
vn 0.8003 0.1464 0.5814
vn 0.3088 0.0414 0.9502
vn -0.3080 -0.0808 0.9479
vn -0.7972 -0.1700 0.5792
vn -0.9809 -0.1943 0.0000
vn 0.0000 1.0000 0.0000
vn -0.8003 -0.1464 -0.5814
vn -0.3088 -0.0414 -0.9502
vn 0.0000 -1.0000 0.0000
vn -0.3089 -0.0226 -0.9508
vn -0.7998 -0.1506 -0.5811
vn -0.9758 -0.2185 0.0000
vn -0.7917 -0.2055 0.5752
vn -0.3070 -0.1151 0.9447
vn 0.3089 0.0226 0.9508
vn 0.7998 0.1506 0.5811
vn 0.9758 0.2185 0.0000
vn 0.7917 0.2055 -0.5752
vn 0.3070 0.1151 -0.9447
vn -0.3082 0.0705 -0.9487
vn -0.7646 0.3268 -0.5555
vn -0.8984 0.4391 0.0000
vn -0.7391 0.4066 0.5370
vn -0.3011 0.2254 0.9266
vn 0.3082 -0.0705 0.9487
vn 0.7646 -0.3268 0.5555
vn 0.8984 -0.4391 0.0000
vn 0.7391 -0.4066 -0.5370
vn 0.3011 -0.2254 -0.9266
g Cylinder_Cylinder.002_Material.002
usemtl Material.002
s off
f 43/23/21 14/24/21 16/25/21 44/26/21
f 44/26/22 16/25/22 18/27/22 45/28/22
f 45/28/23 18/27/23 20/29/23 46/30/23
f 46/30/24 20/29/24 22/31/24 47/32/24
f 47/32/25 22/31/25 24/33/25 48/34/25
f 48/34/26 24/33/26 26/35/26 49/36/26
f 49/36/27 26/35/27 28/37/27 50/38/27
f 50/38/28 28/37/28 30/39/28 51/40/28
f 16/41/29 14/42/29 32/43/29 30/44/29 28/45/29 26/46/29 24/47/29 22/48/29 20/49/29 18/50/29
f 51/40/30 30/39/30 32/51/30 52/52/30
f 52/52/31 32/51/31 14/53/31 43/54/31
f 13/55/32 15/56/32 17/57/32 19/58/32 21/59/32 23/60/32 25/61/32 27/62/32 29/63/32 31/64/32
f 31/65/33 42/66/33 33/67/33 13/68/33
f 29/69/34 41/70/34 42/66/34 31/65/34
f 27/71/35 40/72/35 41/70/35 29/69/35
f 25/73/36 39/74/36 40/72/36 27/71/36
f 23/75/37 38/76/37 39/74/37 25/73/37
f 21/77/38 37/78/38 38/76/38 23/75/38
f 19/79/39 36/80/39 37/78/39 21/77/39
f 17/81/40 35/82/40 36/80/40 19/79/40
f 15/83/41 34/84/41 35/82/41 17/81/41
f 13/85/42 33/86/42 34/84/42 15/83/42
f 42/66/43 52/52/43 43/54/43 33/67/43
f 41/70/44 51/40/44 52/52/44 42/66/44
f 40/72/45 50/38/45 51/40/45 41/70/45
f 39/74/46 49/36/46 50/38/46 40/72/46
f 38/76/47 48/34/47 49/36/47 39/74/47
f 37/78/48 47/32/48 48/34/48 38/76/48
f 36/80/49 46/30/49 47/32/49 37/78/49
f 35/82/50 45/28/50 46/30/50 36/80/50
f 34/84/51 44/26/51 45/28/51 35/82/51
f 33/86/52 43/23/52 44/26/52 34/84/52
o Plane
v -5.000000 0.000000 5.000000
v 5.000000 0.000000 5.000000
v -5.000000 0.000000 -5.000000
v 5.000000 0.000000 -5.000000
vt 0.000000 0.000000
vt 1.000000 0.000000
vt 1.000000 1.000000
vt 0.000000 1.000000
vn 0.0000 1.0000 0.0000
g Plane_Plane_Material.001
usemtl Material.001
s off
f 53/87/53 54/88/53 56/89/53 55/90/53
o Cylinder.001_Cylinder.003
v -1.179992 2.107212 1.428299
v -0.379627 1.377414 0.050670
v -1.177354 2.082253 1.443053
v -0.376989 1.352455 0.065424
v -1.158962 2.066828 1.461910
v -0.358597 1.337030 0.084281
v -1.131841 2.066828 1.477667
v -0.331476 1.337030 0.100038
v -1.106350 2.082253 1.484305
v -0.305985 1.352455 0.106676
v -1.092226 2.107212 1.479289
v -0.291861 1.377414 0.101660
v -1.094864 2.132170 1.464535
v -0.294499 1.402372 0.086905
v -1.113256 2.147595 1.445678
v -0.312891 1.417797 0.068049
v -1.140377 2.147595 1.429921
v -0.340012 1.417797 0.052292
v -1.165868 2.132170 1.423283
v -0.365503 1.402372 0.045654
v -0.814555 1.930510 0.856872
v -0.811917 1.905552 0.871626
v -0.793525 1.890127 0.890483
v -0.766404 1.890127 0.906240
v -0.740913 1.905552 0.912878
v -0.726789 1.930510 0.907862
v -0.729427 1.955468 0.893107
v -0.747819 1.970893 0.874251
v -0.774940 1.970893 0.858494
v -0.800431 1.955468 0.851856
v -0.647830 1.523381 0.493468
v -0.645192 1.498422 0.508223
v -0.626800 1.482997 0.527079
v -0.599678 1.482997 0.542836
v -0.574188 1.498422 0.549474
v -0.560064 1.523381 0.544458
v -0.562702 1.548339 0.529704
v -0.581094 1.563764 0.510847
v -0.608215 1.563764 0.495090
v -0.633706 1.548339 0.488452
vt 1.000000 0.848391
vt 1.000000 1.000000
vt 0.900000 1.000000
vt 0.900000 0.848391
vt 0.800000 1.000000
vt 0.800000 0.848391
vt 0.700000 1.000000
vt 0.700000 0.848391
vt 0.600000 1.000000
vt 0.600000 0.848391
vt 0.500000 1.000000
vt 0.500000 0.848391
vt 0.400000 1.000000
vt 0.400000 0.848391
vt 0.300000 1.000000
vt 0.300000 0.848391
vt 0.200000 1.000000
vt 0.200000 0.848391
vt 0.391068 0.444164
vt 0.250000 0.490000
vt 0.108932 0.444164
vt 0.021746 0.324164
vt 0.021746 0.175836
vt 0.108932 0.055836
vt 0.250000 0.010000
vt 0.391068 0.055836
vt 0.478254 0.175836
vt 0.478254 0.324164
vt 0.100000 1.000000
vt 0.100000 0.848391
vt -0.000000 1.000000
vt -0.000000 0.848391
vt 0.750000 0.490000
vt 0.891068 0.444164
vt 0.978254 0.324164
vt 0.978254 0.175836
vt 0.891068 0.055836
vt 0.750000 0.010000
vt 0.608932 0.055836
vt 0.521746 0.175836
vt 0.521746 0.324164
vt 0.608932 0.444164
vt 0.100000 0.500000
vt 0.100000 0.696782
vt -0.000000 0.696782
vt -0.000000 0.500000
vt 0.200000 0.500000
vt 0.200000 0.696782
vt 0.300000 0.500000
vt 0.300000 0.696782
vt 0.400000 0.500000
vt 0.400000 0.696782
vt 0.500000 0.500000
vt 0.500000 0.696782
vt 0.600000 0.500000
vt 0.600000 0.696782
vt 0.700000 0.500000
vt 0.700000 0.696782
vt 0.800000 0.500000
vt 0.800000 0.696782
vt 0.900000 0.500000
vt 0.900000 0.696782
vt 1.000000 0.500000
vt 1.000000 0.696782
vn -0.8516 -0.3305 -0.4069
vn -0.5851 -0.8061 -0.0887
vn -0.1363 -0.9625 0.2347
vn 0.3588 -0.7999 0.4810
vn 0.7613 -0.3171 0.5656
vn 0.8516 0.3305 0.4069
vn 0.5851 0.8061 0.0887
vn 0.1363 0.9625 -0.2347
vn 0.4567 -0.4164 -0.7861
vn -0.3588 0.7999 -0.4810
vn -0.7613 0.3171 -0.5656
vn -0.4567 0.4164 0.7861
vn -0.7543 0.3106 -0.5784
vn -0.3602 0.8010 -0.4781
vn 0.1267 0.9676 -0.2182
vn 0.5688 0.8148 0.1118
vn 0.8361 0.3420 0.4290
vn 0.7543 -0.3106 0.5784
vn 0.3602 -0.8010 0.4781
vn -0.1267 -0.9676 0.2182
vn -0.5688 -0.8149 -0.1118
vn -0.8361 -0.3420 -0.4290
vn -0.7170 0.2772 -0.6395
vn -0.1724 0.6157 -0.7689
vn 0.3592 0.6990 -0.6183
vn 0.7705 0.5701 -0.2852
vn 0.9564 0.2168 0.1958
vn 0.7170 -0.2772 0.6395
vn 0.1724 -0.6157 0.7689
vn -0.3592 -0.6990 0.6183
vn -0.7705 -0.5701 0.2852
vn -0.9564 -0.2168 -0.1958
g Cylinder.001_Cylinder.003_Material.002
usemtl Material.002
s off
f 87/91/54 58/92/54 60/93/54 88/94/54
f 88/94/55 60/93/55 62/95/55 89/96/55
f 89/96/56 62/95/56 64/97/56 90/98/56
f 90/98/57 64/97/57 66/99/57 91/100/57
f 91/100/58 66/99/58 68/101/58 92/102/58
f 92/102/59 68/101/59 70/103/59 93/104/59
f 93/104/60 70/103/60 72/105/60 94/106/60
f 94/106/61 72/105/61 74/107/61 95/108/61
f 60/109/62 58/110/62 76/111/62 74/112/62 72/113/62 70/114/62 68/115/62 66/116/62 64/117/62 62/118/62
f 95/108/63 74/107/63 76/119/63 96/120/63
f 96/120/64 76/119/64 58/121/64 87/122/64
f 57/123/65 59/124/65 61/125/65 63/126/65 65/127/65 67/128/65 69/129/65 71/130/65 73/131/65 75/132/65
f 75/133/66 86/134/66 77/135/66 57/136/66
f 73/137/67 85/138/67 86/134/67 75/133/67
f 71/139/68 84/140/68 85/138/68 73/137/68
f 69/141/69 83/142/69 84/140/69 71/139/69
f 67/143/70 82/144/70 83/142/70 69/141/70
f 65/145/71 81/146/71 82/144/71 67/143/71
f 63/147/72 80/148/72 81/146/72 65/145/72
f 61/149/73 79/150/73 80/148/73 63/147/73
f 59/151/74 78/152/74 79/150/74 61/149/74
f 57/153/75 77/154/75 78/152/75 59/151/75
f 86/134/76 96/120/76 87/122/76 77/135/76
f 85/138/77 95/108/77 96/120/77 86/134/77
f 84/140/78 94/106/78 95/108/78 85/138/78
f 83/142/79 93/104/79 94/106/79 84/140/79
f 82/144/80 92/102/80 93/104/80 83/142/80
f 81/146/81 91/100/81 92/102/81 82/144/81
f 80/148/82 90/98/82 91/100/82 81/146/82
f 79/150/83 89/96/83 90/98/83 80/148/83
f 78/152/84 88/94/84 89/96/84 79/150/84
f 77/154/85 87/91/85 88/94/85 78/152/85
o Icosphere.001_Icosphere.003
v 0.234157 2.337928 0.089005
v 1.670862 2.812768 -0.018583
v 0.441901 2.892488 1.087063
v -0.853561 2.889041 1.042489
v -0.964750 2.883609 -0.651026
v 0.620652 2.833144 -1.306728
v 1.060632 4.229078 0.867430
v -0.126888 4.290852 1.274940
v -0.916994 4.125808 0.369854
v -0.278721 4.326935 -1.240263
v 1.348307 4.286231 -0.825032
v 0.226195 4.726772 0.128399
vt 0.818181 0.000000
vt 0.727272 0.157461
vt 0.909090 0.157461
vt 0.636363 0.000000
vt 0.545454 0.157461
vt 0.090909 0.000000
vt 0.000000 0.157461
vt 0.181818 0.157461
vt 0.272727 0.000000
vt 0.363636 0.157461
vt 0.454545 0.000000
vt 0.636363 0.314921
vt 0.818181 0.314921
vt 0.090909 0.314921
vt 0.272727 0.314921
vt 0.454545 0.314921
vt 1.000000 0.314921
vt 0.727272 0.472382
vt 0.909090 0.472382
vt 0.181818 0.472382
vt 0.363636 0.472382
vt 0.545454 0.472382
vn 0.3137 -0.8562 0.4104
vn 0.2871 -0.9250 -0.2487
vn -0.0145 -0.8728 0.4879
vn -0.4299 -0.9023 0.0311
vn -0.1834 -0.9094 -0.3734
vn 0.7618 -0.1747 -0.6238
vn 0.6514 -0.1804 0.7370
vn -0.0336 -0.1465 0.9886
vn -0.9977 -0.0155 0.0656
vn -0.3804 -0.1888 -0.9053
vn 0.9392 0.2985 0.1697
vn 0.3248 0.0050 0.9458
vn -0.7469 0.2877 0.5995
vn -0.8998 0.2972 -0.3195
vn 0.2472 0.1911 -0.9499
vn 0.4393 0.8922 0.1048
vn 0.1834 0.8988 0.3982
vn -0.4208 0.8834 0.2063
vn -0.4770 0.8753 -0.0797
vn 0.1037 0.9437 -0.3140
g Icosphere.001_Icosphere.003_Material.004
usemtl Material.004
s off
f 97/155/86 98/156/86 99/157/86
f 98/156/87 97/158/87 102/159/87
f 97/160/88 99/161/88 100/162/88
f 97/163/89 100/162/89 101/164/89
f 97/165/90 101/164/90 102/159/90
f 98/156/91 102/159/91 107/166/91
f 99/157/92 98/156/92 103/167/92
f 100/162/93 99/161/93 104/168/93
f 101/164/94 100/162/94 105/169/94
f 102/159/95 101/164/95 106/170/95
f 98/156/96 107/166/96 103/167/96
f 99/157/97 103/167/97 104/171/97
f 100/162/98 104/168/98 105/169/98
f 101/164/99 105/169/99 106/170/99
f 102/159/100 106/170/100 107/166/100
f 103/167/101 107/166/101 108/172/101
f 104/171/102 103/167/102 108/173/102
f 105/169/103 104/168/103 108/174/103
f 106/170/104 105/169/104 108/175/104
f 107/166/105 106/170/105 108/176/105
o Icosphere.002_Icosphere.004
v -0.299817 -0.211226 -0.371442
v 0.118049 -0.045282 -0.067867
v -0.459424 -0.017422 -0.049714
v -0.816332 -0.018626 -0.371418
v -0.459424 -0.020525 -0.844654
v 0.118049 -0.038161 -0.657018
v -0.140210 0.478187 0.119330
v -0.717683 0.496221 -0.064843
v -0.717683 0.432063 -0.595773
v -0.136955 0.492653 -0.844654
v 0.216697 0.476654 -0.353424
v -0.295671 0.761112 -0.353424
vt 0.818181 0.000000
vt 0.727272 0.157461
vt 0.909090 0.157461
vt 0.636363 0.000000
vt 0.545454 0.157461
vt 0.090909 0.000000
vt 0.000000 0.157461
vt 0.181818 0.157461
vt 0.272727 0.000000
vt 0.363636 0.157461
vt 0.454545 0.000000
vt 0.636363 0.314921
vt 0.818181 0.314921
vt 0.090909 0.314921
vt 0.272727 0.314921
vt 0.454545 0.314921
vt 1.000000 0.314921
vt 0.727272 0.472382
vt 0.909090 0.472382
vt 0.181818 0.472382
vt 0.363636 0.472382
vt 0.545454 0.472382
vn -0.0257 -0.8619 0.5065
vn 0.3761 -0.9265 -0.0112
vn -0.3254 -0.8726 0.3642
vn -0.3382 -0.9069 -0.2514
vn 0.1026 -0.9101 -0.4014
vn 0.9824 -0.1869 -0.0023
vn 0.0137 -0.3307 0.9436
vn -0.6381 -0.3000 0.7091
vn -0.7925 -0.1238 -0.5972
vn 0.2984 -0.1875 -0.9359
vn 0.7859 0.1758 0.5928
vn -0.3050 -0.1255 0.9440
vn -0.9791 0.2021 -0.0244
vn -0.4033 0.2534 -0.8793
vn 0.8007 0.1830 -0.5705
vn 0.4562 0.8217 0.3417
vn -0.1474 0.8266 0.5432
vn -0.5763 0.8113 -0.0980
vn -0.3099 0.7886 -0.5311
vn 0.4622 0.8325 -0.3056
g Icosphere.002_Icosphere.004_Material.005
usemtl Material.005
s off
f 109/177/106 110/178/106 111/179/106
f 110/178/107 109/180/107 114/181/107
f 109/182/108 111/183/108 112/184/108
f 109/185/109 112/184/109 113/186/109
f 109/187/110 113/186/110 114/181/110
f 110/178/111 114/181/111 119/188/111
f 111/179/112 110/178/112 115/189/112
f 112/184/113 111/183/113 116/190/113
f 113/186/114 112/184/114 117/191/114
f 114/181/115 113/186/115 118/192/115
f 110/178/116 119/188/116 115/189/116
f 111/179/117 115/189/117 116/193/117
f 112/184/118 116/190/118 117/191/118
f 113/186/119 117/191/119 118/192/119
f 114/181/120 118/192/120 119/188/120
f 115/189/121 119/188/121 120/194/121
f 116/193/122 115/189/122 120/195/122
f 117/191/123 116/190/123 120/196/123
f 118/192/124 117/191/124 120/197/124
f 119/188/125 118/192/125 120/198/125
o Icosphere.003_Icosphere.005
v -0.263312 -0.166270 0.148930
v -0.030829 -0.090541 0.187764
v -0.262943 -0.077827 0.312825
v -0.474226 -0.078377 0.254169
v -0.424894 -0.079243 -0.011790
v -0.150856 -0.087291 -0.052816
v -0.098152 0.148345 0.316821
v -0.371485 0.156574 0.359261
v -0.479651 0.127296 0.142455
v -0.293214 0.154946 -0.077486
v -0.048722 0.147645 0.051059
v -0.257948 0.277457 0.155443
vt 0.818181 0.000000
vt 0.727272 0.157461
vt 0.909090 0.157461
vt 0.636363 0.000000
vt 0.545454 0.157461
vt 0.090909 0.000000
vt 0.000000 0.157461
vt 0.181818 0.157461
vt 0.272727 0.000000
vt 0.363636 0.157461
vt 0.454545 0.000000
vt 0.636363 0.314921
vt 0.818181 0.314921
vt 0.090909 0.314921
vt 0.272727 0.314921
vt 0.454545 0.314921
vt 1.000000 0.314921
vt 0.727272 0.472382
vt 0.909090 0.472382
vt 0.181818 0.472382
vt 0.363636 0.472382
vt 0.545454 0.472382
vn 0.2031 -0.8619 0.4646
vn 0.3315 -0.9265 -0.1779
vn -0.1285 -0.8726 0.4712
vn -0.4148 -0.9069 -0.0740
vn -0.0874 -0.9101 -0.4050
vn 0.8780 -0.1869 -0.4406
vn 0.4335 -0.3307 0.8383
vn -0.2545 -0.3000 0.9194
vn -0.9757 -0.1238 -0.1806
vn -0.1508 -0.1875 -0.9706
vn 0.9679 0.1758 0.1796
vn 0.1485 -0.1255 0.9809
vn -0.8870 0.2021 0.4152
vn -0.7534 0.2534 -0.6068
vn 0.4618 0.1830 -0.8679
vn 0.5607 0.8217 0.1021
vn 0.1106 0.8266 0.5518
vn -0.5595 0.8113 0.1695
vn -0.5144 0.7886 -0.3369
vn 0.2771 0.8325 -0.4798
g Icosphere.003_Icosphere.005_Material.006
usemtl Material.006
s off
f 121/199/126 122/200/126 123/201/126
f 122/200/127 121/202/127 126/203/127
f 121/204/128 123/205/128 124/206/128
f 121/207/129 124/206/129 125/208/129
f 121/209/130 125/208/130 126/203/130
f 122/200/131 126/203/131 131/210/131
f 123/201/132 122/200/132 127/211/132
f 124/206/133 123/205/133 128/212/133
f 125/208/134 124/206/134 129/213/134
f 126/203/135 125/208/135 130/214/135
f 122/200/136 131/210/136 127/211/136
f 123/201/137 127/211/137 128/215/137
f 124/206/138 128/212/138 129/213/138
f 125/208/139 129/213/139 130/214/139
f 126/203/140 130/214/140 131/210/140
f 127/211/141 131/210/141 132/216/141
f 128/215/142 127/211/142 132/217/142
f 129/213/143 128/212/143 132/218/143
f 130/214/144 129/213/144 132/219/144
f 131/210/145 130/214/145 132/220/145
o Icosphere.004_Icosphere.006
v 0.151355 -0.166270 -0.133870
v 0.383838 -0.090541 -0.095036
v 0.151725 -0.077827 0.030025
v -0.059559 -0.078377 -0.028632
v -0.010227 -0.079243 -0.294590
v 0.263811 -0.087291 -0.335616
v 0.316515 0.148345 0.034021
v 0.043182 0.156574 0.076461
v -0.064983 0.127296 -0.140345
v 0.121454 0.154946 -0.360286
v 0.365945 0.147645 -0.231741
v 0.156719 0.277457 -0.127357
vt 0.818181 0.000000
vt 0.727272 0.157461
vt 0.909090 0.157461
vt 0.636363 0.000000
vt 0.545454 0.157461
vt 0.090909 0.000000
vt 0.000000 0.157461
vt 0.181818 0.157461
vt 0.272727 0.000000
vt 0.363636 0.157461
vt 0.454545 0.000000
vt 0.636363 0.314921
vt 0.818181 0.314921
vt 0.090909 0.314921
vt 0.272727 0.314921
vt 0.454545 0.314921
vt 1.000000 0.314921
vt 0.727272 0.472382
vt 0.909090 0.472382
vt 0.181818 0.472382
vt 0.363636 0.472382
vt 0.545454 0.472382
vn 0.2031 -0.8619 0.4646
vn 0.3315 -0.9265 -0.1779
vn -0.1285 -0.8726 0.4712
vn -0.4148 -0.9069 -0.0740
vn -0.0874 -0.9101 -0.4050
vn 0.8780 -0.1869 -0.4406
vn 0.4335 -0.3307 0.8383
vn -0.2545 -0.3000 0.9194
vn -0.9757 -0.1238 -0.1806
vn -0.1508 -0.1875 -0.9706
vn 0.9679 0.1758 0.1796
vn 0.1485 -0.1255 0.9809
vn -0.8870 0.2021 0.4152
vn -0.7534 0.2534 -0.6068
vn 0.4618 0.1830 -0.8679
vn 0.5607 0.8217 0.1021
vn 0.1106 0.8266 0.5518
vn -0.5595 0.8113 0.1695
vn -0.5144 0.7886 -0.3369
vn 0.2771 0.8325 -0.4798
g Icosphere.004_Icosphere.006_Material.007
usemtl Material.007
s off
f 133/221/146 134/222/146 135/223/146
f 134/222/147 133/224/147 138/225/147
f 133/226/148 135/227/148 136/228/148
f 133/229/149 136/228/149 137/230/149
f 133/231/150 137/230/150 138/225/150
f 134/222/151 138/225/151 143/232/151
f 135/223/152 134/222/152 139/233/152
f 136/228/153 135/227/153 140/234/153
f 137/230/154 136/228/154 141/235/154
f 138/225/155 137/230/155 142/236/155
f 134/222/156 143/232/156 139/233/156
f 135/223/157 139/233/157 140/237/157
f 136/228/158 140/234/158 141/235/158
f 137/230/159 141/235/159 142/236/159
f 138/225/160 142/236/160 143/232/160
f 139/233/161 143/232/161 144/238/161
f 140/237/162 139/233/162 144/239/162
f 141/235/163 140/234/163 144/240/163
f 142/236/164 141/235/164 144/241/164
f 143/232/165 142/236/165 144/242/165
